<svg xmlns="http://www.w3.org/2000/svg" viewBox="0 0 60 60" width="60" height="60"><path d="M53.73 0h.48c1.07 2.72 2.94 4.82 5.79 5.71v.48c-2.63 1.06-4.53 2.96-5.7 5.52-1.83-.3-1.8-3.42-3.75-4-.81-.57-3.71-1.7-1.42-2.55 2.37-.87 3.66-2.93 4.6-5.16m-.46 5.07c-.57 1.7-.08 2.32 1.46 1.86.57-1.7.08-2.32-1.46-1.86zm-43 5.13c13.17-.03 26.33-.03 39.5 0 3.42 5.23 6.97 10.38 10.23 15.71v.25c-3.31 3.64-6.19 7.72-9.9 10.97-.53-.14-1.6-.43-2.14-.58 2.53-3.27 5.33-6.32 8.05-9.42-5.19-.01-10.37-.01-15.55 0-2.58 8.88-5.21 17.74-7.79 26.62 3.59-3.99 6.97-8.19 10.78-11.97 1.71 2.54-1.04 4.38-2.44 6.2-3.64 3.96-6.98 8.19-10.76 12.02h-.47c-4.66-4.94-9.2-10.03-13.43-15.33.36-.39 1.06-1.16 1.41-1.54 3.46 3.28 6.34 7.11 9.56 10.61-2.56-8.88-5.19-17.74-7.77-26.61-5.16-.02-10.31.03-15.47-.05 1.35 1.9 4.17 3.73 2.41 6.3-2.28-2.29-4.4-4.73-6.49-7.19v-.26c3.26-5.35 6.85-10.49 10.27-15.73m2.92 2.37c2.42 3.71 4.85 7.41 7.28 11.12 2.43-3.71 4.86-7.41 7.28-11.12H13.19m19.06 0c2.43 3.72 4.87 7.43 7.3 11.14 2.44-3.71 4.88-7.42 7.31-11.14H32.25M3.58 24.74c4.89.01 9.78.01 14.67.01-2.42-3.74-4.87-7.46-7.32-11.17L3.58 24.74m19.11.01h14.63c-2.43-3.73-4.87-7.45-7.32-11.17-2.44 3.72-4.88 7.44-7.31 11.17m19.1 0h14.64c-2.43-3.73-4.88-7.45-7.32-11.17-2.45 3.71-4.89 7.44-7.32 11.17m-19.73 2.38c2.65 9.02 5.27 18.05 7.94 27.07 2.68-9.02 5.29-18.05 7.95-27.07-5.3-.01-10.59-.01-15.89 0z"/><path d="M11.2 31.8c2.15-.6 1.81 2.25 2.61 3.5.9 2.48 3.91 2.59 5.94 3.63.19 1.96-2.5 1.55-3.63 2.43-3.12.74-2.09 5.17-4.9 6.16-.58-1.62-.75-3.47-1.8-4.89-1.3-1.71-3.62-1.82-5.5-2.44.25-2.2 2.8-2.02 4.31-2.94 2.02-1.04 2.1-3.62 2.97-5.45m-1.59 7.67c.76.72 1.5 1.47 2.23 2.23.58-.56 1.72-1.67 2.3-2.23-.76-.77-1.52-1.53-2.28-2.3-.56.57-1.69 1.72-2.25 2.3zm35.47-.26c1.05-1.48 3.46.33 2.27 1.74-1.05 1.45-3.51-.35-2.27-1.74z"/></svg>