<svg viewBox="0 0 130 125" xmlns="http://www.w3.org/2000/svg">
	<style>
		.moved{
			fill: #bf9b70;
			stroke: #bf9b70;
		}
	</style>
<g>
<path class="moved" id="path" stroke-dasharray="1366" stroke-dashoffset="0"
	d=" M 64.80 0.00 L 65.13 0.00 C 65.55 2.14 65.86 4.30 66.19 6.46 C 74.87 6.82 83.32 9.76 90.08 15.26 C 88.68 17.73 87.19 20.15 85.74 22.59 C 88.84 25.21 91.68 28.12 94.07 31.41 C 96.32 30.33 98.61 29.30 101.05 28.72 C 104.15 31.35 105.32 35.56 106.77 39.23 C 110.62 49.56 107.27 61.11 101.36 69.95 C 99.12 68.70 96.92 67.38 94.77 65.98 C 92.30 69.83 89.16 73.19 85.60 76.05 C 87.07 78.44 88.55 80.83 90.02 83.22 C 83.38 88.94 74.83 91.81 66.15 92.20 C 65.76 94.89 65.36 97.58 65.00 100.28 C 64.64 97.54 64.22 94.80 63.80 92.07 C 55.08 91.76 46.55 88.83 39.87 83.14 C 41.36 80.76 42.84 78.37 44.34 75.98 C 40.78 73.12 37.63 69.77 35.16 65.92 C 33.00 67.34 30.79 68.68 28.54 69.95 C 24.26 63.84 21.66 56.47 21.38 49.01 C 21.52 41.82 24.09 34.67 28.25 28.84 C 31.01 28.94 33.45 30.38 35.90 31.49 C 38.31 28.13 41.20 25.17 44.34 22.49 C 42.88 20.06 41.40 17.64 40.00 15.17 C 46.76 9.68 55.19 6.75 63.85 6.39 C 64.16 4.26 64.47 2.13 64.80 0.00 M 43.72 15.95 C 44.77 17.61 45.80 19.28 46.79 20.98 C 51.98 16.73 59.45 15.46 63.13 9.47 C 56.12 9.57 49.51 12.14 43.72 15.95 M 66.98 9.52 C 70.59 15.56 78.12 16.80 83.29 21.06 C 84.28 19.37 85.30 17.69 86.32 16.01 C 80.56 12.18 73.95 9.71 66.98 9.52 M 48.08 23.49 C 49.13 25.77 50.13 28.06 51.01 30.41 C 55.54 27.59 60.57 25.08 66.03 25.13 C 70.86 25.22 75.25 27.53 79.18 30.14 C 80.05 27.93 81.00 25.76 82.02 23.62 C 76.55 19.26 68.53 17.97 65.01 11.46 C 61.48 17.89 53.53 19.19 48.08 23.49 M 38.15 33.17 C 41.01 36.07 43.27 39.47 45.49 42.86 C 48.82 40.87 44.80 38.42 43.79 36.24 C 45.36 34.81 46.98 33.42 48.62 32.07 C 47.68 29.78 46.73 27.50 45.69 25.25 C 42.88 27.59 40.39 30.28 38.15 33.17 M 84.38 25.32 C 83.39 27.50 82.47 29.71 81.59 31.93 C 83.16 33.35 84.71 34.81 86.22 36.30 C 85.00 37.88 83.75 39.45 82.52 41.04 C 83.03 41.43 84.04 42.23 84.54 42.62 C 86.66 39.22 88.96 35.91 91.82 33.08 C 89.60 30.26 87.13 27.63 84.38 25.32 M 51.88 33.55 C 52.10 36.13 51.92 38.73 50.86 41.12 C 52.29 43.94 53.87 46.79 54.30 49.97 C 54.72 53.21 52.99 56.13 51.52 58.86 C 51.83 61.01 51.89 63.18 51.76 65.35 C 55.76 67.86 60.16 70.15 64.99 70.24 C 69.80 70.15 74.19 67.88 78.18 65.38 C 77.93 62.88 78.01 60.36 78.85 57.98 C 75.49 52.72 75.43 45.95 78.93 40.74 C 78.12 38.29 78.01 35.72 78.24 33.17 C 74.55 30.76 70.55 28.28 65.99 28.23 C 60.80 28.18 56.09 30.78 51.88 33.55 M 29.58 31.82 C 26.73 37.10 24.24 42.86 24.30 48.97 C 24.35 55.06 26.70 60.84 29.40 66.19 C 30.92 65.23 32.43 64.26 33.93 63.28 C 32.26 59.91 31.10 56.32 30.35 52.63 C 36.83 50.55 44.81 50.98 49.99 55.84 C 52.11 51.88 50.94 47.60 48.98 43.86 C 43.86 47.24 37.35 47.56 31.51 46.34 C 31.30 46.02 30.88 45.39 30.67 45.08 C 31.28 41.20 32.86 37.58 34.43 34.02 C 32.82 33.27 31.21 32.53 29.58 31.82 M 95.52 33.91 C 97.21 37.53 98.77 41.25 99.45 45.21 C 99.02 46.26 98.22 46.77 97.08 46.75 C 91.48 47.59 85.27 47.13 80.70 43.45 C 78.98 47.22 78.95 51.41 80.65 55.19 C 85.83 51.31 93.55 50.28 99.35 52.96 C 98.97 56.62 97.56 60.04 96.01 63.34 C 97.49 64.31 98.97 65.28 100.47 66.23 C 103.11 60.82 105.48 55.06 105.55 48.95 C 105.58 42.87 103.09 37.15 100.32 31.86 C 98.71 32.53 97.12 33.23 95.52 33.91 M 47.88 37.66 C 49.50 38.07 50.01 37.46 49.41 35.83 C 47.80 35.48 47.29 36.09 47.88 37.66 M 87.23 43.66 C 90.25 44.09 93.30 44.28 96.35 44.11 C 95.45 41.22 94.37 38.39 93.17 35.61 C 91.09 38.21 89.09 40.89 87.23 43.66 M 33.73 43.88 C 36.68 44.13 39.64 44.04 42.58 43.72 C 40.77 40.98 38.87 38.29 36.79 35.75 C 35.69 38.43 34.63 41.13 33.73 43.88 M 33.63 54.52 C 34.44 56.92 35.31 59.31 36.25 61.66 C 38.71 59.61 40.93 57.31 42.90 54.80 C 39.82 54.49 36.72 54.40 33.63 54.52 M 87.03 54.87 C 88.97 57.40 91.21 59.68 93.66 61.72 C 94.60 59.37 95.48 57.00 96.30 54.61 C 93.21 54.48 90.11 54.58 87.03 54.87 M 37.60 64.38 C 39.79 67.73 42.49 70.71 45.57 73.26 C 46.56 71.15 47.49 69.00 48.40 66.85 C 46.74 65.49 45.19 64.01 43.74 62.43 C 45.11 61.09 46.53 59.79 47.81 58.35 C 47.32 57.72 46.33 56.47 45.84 55.84 C 43.35 58.93 40.65 61.84 37.60 64.38 M 86.16 62.51 C 84.70 64.06 83.17 65.53 81.52 66.87 C 82.41 69.03 83.31 71.19 84.25 73.32 C 87.44 70.85 90.13 67.81 92.34 64.44 C 89.23 61.92 86.50 58.98 84.02 55.84 C 80.94 58.24 84.87 60.39 86.16 62.51 M 50.83 68.38 C 49.96 70.62 49.00 72.84 47.96 75.02 C 51.87 77.52 55.97 79.70 60.05 81.90 C 62.26 82.97 63.69 85.01 64.99 87.01 C 68.63 80.69 76.50 79.34 81.98 75.08 C 80.90 72.92 79.95 70.69 79.07 68.44 C 74.82 71.04 70.10 73.25 65.03 73.31 C 59.89 73.26 55.11 71.03 50.83 68.38 M 43.65 82.44 C 49.32 86.41 55.98 88.70 62.88 89.14 C 61.75 87.33 60.59 85.39 58.59 84.43 C 54.58 82.24 50.49 80.20 46.75 77.55 C 45.70 79.17 44.67 80.80 43.65 82.44 M 67.00 89.21 C 73.91 88.85 80.50 86.42 86.26 82.63 C 85.24 80.96 84.23 79.29 83.22 77.62 C 78.09 81.92 70.34 82.99 67.00 89.21 Z" />
<path class="moved" 
	d=" M 61.45 43.50 C 62.73 40.62 67.20 40.63 68.41 43.56 C 69.81 45.86 67.61 47.91 65.94 49.20 C 67.38 51.52 68.77 53.87 70.19 56.20 C 66.67 56.15 63.14 56.17 59.62 56.23 C 61.04 53.89 62.43 51.53 63.83 49.18 C 62.12 47.90 60.05 45.78 61.45 43.50 Z" />
<path class="moved" 
	d=" M 0.00 105.39 C 3.88 105.53 7.79 104.98 11.64 105.64 C 13.73 105.97 15.75 107.71 15.58 109.98 C 15.49 111.87 13.74 112.89 12.56 114.10 C 14.64 115.34 17.12 117.16 16.23 119.98 C 14.45 126.53 4.63 124.51 0.04 124.27 L 4.58 125.00 L 0.00 125.00 L 0.00 124.44 C 0.55 123.79 1.64 122.49 2.19 121.84 C 2.51 117.32 2.50 112.75 2.20 108.22 C 1.65 107.56 0.55 106.23 0.00 105.56 L 0.00 105.39 M 6.55 106.77 C 6.53 109.18 6.52 111.59 6.55 114.00 C 8.87 113.97 11.62 112.91 11.11 110.04 C 11.40 107.35 8.55 106.90 6.55 106.77 M 6.54 115.06 C 6.52 117.77 6.53 120.48 6.55 123.19 C 7.84 122.95 9.24 123.05 10.43 122.44 C 12.11 120.89 12.14 117.96 10.80 116.18 C 9.61 115.24 7.96 115.39 6.54 115.06 Z" />
<path class="moved" 
	d=" M 18.56 105.63 C 23.42 105.21 28.29 105.49 33.15 105.41 C 32.88 107.01 32.62 108.62 32.39 110.23 L 31.13 110.22 C 31.01 109.46 30.78 107.93 30.66 107.17 C 28.93 107.10 27.20 107.08 25.47 107.07 C 25.47 109.37 25.47 111.66 25.47 113.96 C 26.47 113.97 27.48 113.99 28.48 114.00 C 28.93 112.88 29.61 111.90 30.64 111.28 C 30.45 113.66 31.24 116.38 29.80 118.50 C 29.53 117.78 28.98 116.34 28.71 115.62 C 27.61 115.63 26.51 115.64 25.42 115.66 C 25.47 118.05 25.48 120.44 25.49 122.83 C 27.16 122.84 28.83 122.84 30.51 122.85 C 31.46 121.37 32.37 119.87 33.30 118.38 C 33.25 120.43 33.21 122.49 33.18 124.54 C 28.38 124.60 23.58 124.38 18.79 124.69 C 22.67 122.36 20.92 117.65 21.30 113.98 C 21.02 110.96 22.53 106.76 18.56 105.63 Z" />
<path class="moved" 
	d=" M 35.45 105.61 C 40.20 105.66 45.22 104.46 49.75 106.29 C 53.02 107.72 53.02 112.48 50.70 114.76 C 48.61 116.92 45.34 116.68 42.61 117.21 C 42.47 120.11 42.97 122.90 45.12 125.00 L 36.43 125.00 C 36.53 124.82 36.74 124.45 36.85 124.27 C 37.23 123.66 37.99 122.46 38.37 121.85 C 38.90 117.05 38.40 112.18 38.59 107.35 C 37.81 106.91 36.24 106.04 35.45 105.61 M 42.78 106.77 C 42.76 109.63 42.76 112.49 42.78 115.35 C 45.45 115.57 48.24 114.05 47.75 110.99 C 48.25 107.92 45.39 106.62 42.78 106.77 Z" />
<path class="moved" 
	d=" M 59.59 106.61 C 63.05 104.46 67.25 104.99 71.07 105.64 C 70.44 107.64 69.85 109.64 69.26 111.65 C 68.77 109.99 68.29 108.33 67.81 106.67 C 65.68 107.00 62.98 106.48 61.50 108.44 C 58.77 112.03 58.80 117.81 61.93 121.15 C 64.53 123.89 68.55 122.41 71.81 122.50 C 70.16 123.54 68.44 124.53 66.52 125.00 L 64.09 125.00 C 62.03 124.67 59.87 124.25 58.24 122.85 C 53.25 118.79 53.85 109.72 59.59 106.61 Z" />
<path class="moved" 
	d=" M 74.84 120.75 C 77.35 115.28 78.94 109.39 82.15 104.25 C 84.93 110.44 86.78 116.99 89.18 123.32 C 91.08 123.09 93.51 123.68 94.85 121.94 C 98.24 117.93 98.78 112.45 99.39 107.45 C 98.14 106.84 96.89 106.24 95.64 105.63 C 100.90 105.14 106.17 105.64 111.42 105.38 C 110.84 105.94 109.67 107.06 109.09 107.62 C 108.48 111.67 108.83 115.82 108.81 119.90 C 108.45 122.00 109.97 123.37 111.37 124.66 C 108.38 124.59 105.38 124.56 102.39 124.69 C 102.88 124.11 103.88 122.93 104.37 122.34 C 104.91 117.29 104.48 112.20 104.62 107.14 C 103.50 107.13 102.37 107.13 101.25 107.12 C 100.83 112.20 100.34 117.43 98.12 122.10 C 97.44 123.79 96.15 124.76 94.26 125.00 L 82.23 125.00 C 82.99 124.11 83.76 123.23 84.54 122.36 C 84.05 121.10 83.57 119.84 83.08 118.58 C 81.31 118.59 79.55 118.59 77.79 118.59 C 77.24 119.89 76.69 121.19 76.14 122.49 C 76.77 122.99 78.02 123.99 78.65 124.49 C 76.23 124.56 73.82 124.63 71.41 124.71 C 72.57 123.41 74.11 122.38 74.84 120.75 M 80.62 111.12 C 79.86 113.05 79.11 114.98 78.36 116.91 C 79.77 116.91 81.17 116.91 82.58 116.91 C 81.91 114.98 81.28 113.05 80.62 111.12 Z" />
<path class="moved" 
	d=" M 113.27 105.37 C 116.68 105.43 120.11 105.40 123.51 105.62 C 122.70 106.05 121.08 106.92 120.27 107.35 C 120.27 109.27 120.26 111.20 120.22 113.12 C 123.74 113.38 128.22 113.12 130.00 116.87 L 130.00 119.47 C 127.86 126.54 119.06 124.15 113.57 124.69 C 114.13 124.10 115.25 122.91 115.81 122.32 C 116.56 117.44 115.96 112.44 116.09 107.51 C 115.14 106.81 114.20 106.10 113.27 105.37 M 120.30 114.81 C 120.28 117.61 120.28 120.41 120.30 123.21 C 123.41 123.58 126.26 121.34 125.37 118.01 C 125.47 115.17 122.39 114.92 120.30 114.81 Z" />
</g>
</svg>
