<svg xmlns="http://www.w3.org/2000/svg" viewBox="0 0 56 57" width="56" height="57"><path d="M38.22 0h.65c1.97.82 4.41 2.34 3.82 4.86-.98 5.74-.67 11.58-.71 17.37 2.72 3.33 6.98 4.12 10.94 5.03 1.09 4.77 2.13 9.55 3.07 14.35-2.56 1.28-5.15 2.51-7.84 3.49.56-2.04 1.19-4.05 1.86-6.05-.79-2.19-1.61-4.38-2.41-6.56-3.46-1.3-6.78-3.93-10.65-3.39-2.71.73-5.32 1.92-7.71 3.38-1.51 1.86-1.94 4.38-2.87 6.56.7 2.02 1.37 4.06 1.97 6.12-2.71-1.01-5.55-1.94-7.76-3.86.64-5.06 1.92-10.01 2.88-15.02 3.97-.44 8.34-.59 10.99-4.05-.07-4.46-.06-8.91-.06-13.36-7.69 1.7-15.38 3.39-23.06 5.15 0 9.91.01 19.82-.01 29.72 1.25.05 2.49.11 3.73.16.02 4.01.02 8.01-.01 12.01-4.94.13-9.88.11-14.82.07-.2-4.02-.19-8.05-.11-12.08.95-.04 2.83-.11 3.77-.15-.07-9.87.1-19.74-.09-29.61-.65-1.35-1.4-2.68-1.78-4.14-.43-2.9 1.91-5.85 4.85-6.02 8.28-.95 16.63-.97 24.92-1.82C34.07 1.95 36.09.75 38.22 0m-.94 2.27c-1.34.48-2.44 2.39-1.48 3.65.65 1.95 3.54 2.18 4.59.46 1.78-1.89-.87-5.26-3.11-4.11M12.12 5.46c.67 1.97 1.04 4.01 1.18 6.09 6.85-1.63 13.75-3.07 20.61-4.65-.12-.71-.37-2.14-.49-2.85-7.1.55-14.2 1.02-21.3 1.41M5.44 6.54c-1.77 1.2-2.03 4.04-.42 5.47 1.89 2.2 6 .82 6.17-2.1.57-3.05-3.41-5.32-5.75-3.37m30.92 2.88c.06 4.01.03 8.03.05 12.04.9 0 2.69 0 3.59.01V9.37c-1.21.02-2.43.04-3.64.05M5.8 15.02c.01 9.59-.01 19.18.01 28.78.9 0 2.68.01 3.58.01.02-9.6 0-19.2.01-28.8-.9.01-2.7.01-3.6.01m26.26 11.94c-2.26.63-4.62.75-6.93 1.1-.84 4.12-1.68 8.24-2.46 12.38l2.08 1.28c-.93-3.77 1.34-7.19 2.43-10.65 3.2-1.41 6.29-3.19 9.69-4.06 4.37-.42 8.25 2.17 12.01 4.03 1.86 3.28 3.53 7.16 2.85 11.04.46-.47 1.39-1.4 1.85-1.87-.64-3.79-1.27-7.63-2.52-11.28-3.89-1.01-8.02-1.82-10.44-5.4a717.9 717.9 0 0 0-4.64-.07c-1.29 1.18-2.43 2.56-3.92 3.5M2.93 45.74c1.55 2.45 3.11 4.91 4.66 7.36 1.55-2.45 3.11-4.89 4.65-7.35-3.1-.02-6.21-.02-9.31-.01m-.87 2.43V54h3.73c-1.24-1.95-2.48-3.89-3.73-5.83m7.34 5.82c1.22 0 2.44.01 3.66.01 0-1.9 0-3.8-.01-5.7-1.22 1.89-2.44 3.79-3.65 5.69z"/><path d="M5.82 9.07C5.55 7.13 8.2 8.06 9.27 7.55c.01 1.29-.01 2.57-.04 3.86-1.46-.29-4.14.04-3.41-2.34zm27.36 24.85c.95-.89 1.93-1.74 2.94-2.56.65.44 1.3.87 1.95 1.31 1.94-1.51 4.03-.48 5.24 1.33 2.11.47 3.28 2.24 3.03 4.36 1.43 1.64 1.57 4.09-.33 5.47.14.57.43 1.71.58 2.27-1.09.7-2.19 1.38-3.31 2.03-1.18 1.73-2.95 2.49-4.95 1.63-1.39.11-2.78.19-4.17.25-.14-.49-.43-1.48-.57-1.98-1.43-.4-2.69-1.15-3.84-2.08.18-.55.53-1.66.7-2.21-2.2-1.24-1.95-4.2.05-5.41-.25-.77-.51-1.54-.76-2.31 1.14-.71 2.28-1.42 3.44-2.1m-.94 2.99l.68 2.09c-.5.51-1.48 1.54-1.97 2.05.48.48 1.45 1.45 1.94 1.93-.16.55-.47 1.66-.62 2.21 1.7.38 3.12 1.23 3.96 2.8.42-.28 1.27-.83 1.7-1.11.8.32 1.6.65 2.39.97.79-1.26 1.86-2.26 3.34-2.62.09-1.49.58-2.88 1.3-4.17-.67-1.32-1.18-2.71-1.32-4.2-1.4-.37-2.46-1.28-3.19-2.52-1.46.49-2.97.66-4.41-.02-.77 1.5-2.28 2.12-3.8 2.59z"/><path d="M37.42 36.39c3.41-.74 6.64 3.14 5.17 6.35-1.07 3.16-5.64 4.05-7.82 1.53-2.57-2.52-.95-7.46 2.65-7.88m.12 1.97c-2.17.6-2.89 3.78-.78 4.93 1.62 1.36 4.35-.3 4.17-2.3.07-1.68-1.8-3-3.39-2.63zM50.21 57c-1.25-2.76 3.36-2.63 1.8 0h-1.8zm3.95 0c-.5-1.72.12-2.34 1.84-1.84V57h-1.84z"/></svg>