<?xml version="1.0" encoding="UTF-8" ?>
<!DOCTYPE svg PUBLIC "-//W3C//DTD SVG 1.1//EN" "http://www.w3.org/Graphics/SVG/1.1/DTD/svg11.dtd">
<svg width="39pt" height="64pt" viewBox="0 0 39 64" version="1.1" xmlns="http://www.w3.org/2000/svg">
<g id="#bf9b70ff">
<path fill="#bf9b70" opacity="1.00" d=" M 17.72 0.00 L 21.09 0.00 C 26.09 0.52 30.90 2.93 34.06 6.88 C 38.38 12.07 39.53 19.66 36.89 25.88 C 35.33 29.55 33.26 32.96 31.13 36.31 C 27.52 41.58 23.94 46.96 19.31 51.40 C 15.35 46.79 11.61 41.98 8.26 36.90 C 5.99 33.38 3.78 29.78 2.12 25.92 C -0.62 19.49 0.70 11.59 5.36 6.38 C 8.46 2.74 13.02 0.59 17.72 0.00 M 16.37 9.58 C 9.52 11.59 7.48 21.50 13.04 26.01 C 18.11 31.01 27.66 27.91 28.97 20.95 C 30.94 13.92 23.17 6.88 16.37 9.58 Z" />
</g>
<g id="#1b1b1bb2">
<path fill="#1b1b1b" opacity="0.70" d=" M 8.26 36.90 C 11.61 41.98 15.35 46.79 19.31 51.40 C 23.94 46.96 27.52 41.58 31.13 36.31 C 34.40 40.04 36.62 44.95 35.83 50.00 C 35.05 57.60 28.20 63.71 20.62 64.00 L 19.41 64.00 C 11.47 63.76 4.38 57.00 4.07 49.02 C 3.62 44.55 5.62 40.37 8.26 36.90 Z" />
</g>
</svg>
