<svg xmlns="http://www.w3.org/2000/svg" viewBox="0 0 59 59" width="59" height="59"><path d="M17.12 0h.38c1.67 1.33 3.23 2.79 4.73 4.31 3.4-1.14 6.91-3.07 10.6-2.14 4.05 1.06 7.36 3.87 11.31 5.21 1.65-.64 3.34-1.15 5.06-1.58 1.98-3.4 6.61-1.33 9.8-1.5v.27c-.19 5.38-.03 10.76-.2 16.13-3.81.16-7.62.14-11.43.14-2.17 2.5-5 4.4-8.43 4.43-3.94 3.6-7.47 7.62-11.41 11.21-1.03 1.33-2.26-.22-3.05-.93-7.06-7.2-14.36-14.17-21.3-21.5C7.7 9.24 12.45 4.65 17.12 0m.33 2.95c-.86.96-1.73 1.93-2.59 2.91 1.73.35 3.5.35 5.24 0-.87-.98-1.76-1.95-2.65-2.91m6.61 3.27c1.45 1.42 2.79 2.99 4.44 4.2 2.73 1.16 5.68 1.68 8.41 2.85l.2 1.91c-4.22-.02-7.98-2.47-12.1-3.14-1.97-.32-3.13 2.36-1.7 3.7 3.9 2.44 9.03 2.33 12.47 5.61 2.09 1.81 5.46 1.88 7.57.05 3.59-2.56 1.47-7.53 2-11.21-4.67-.85-8.3-4.18-12.75-5.61-2.95-1.01-5.8.75-8.54 1.64M13.12 7.39c-.76.75-1.52 1.51-2.28 2.27 1.45 2.79 1.48 6.01 0 8.8 3.77 3.79 7.54 7.57 11.33 11.33 2.75-1.5 5.95-1.5 8.7 0 .58-.56 1.73-1.68 2.31-2.23-.81-1.93-1.2-3.99-1.33-6.07-1.11-.37-2.22-.74-3.32-1.09-1.16 2.55-3.46 4.89-6.47 4.74-4.11.25-7.52-4.1-6.45-8.05.96-4.06 5.57-5.14 8.36-7.67l-2.16-2.01c-2.75 1.51-5.95 1.5-8.69-.02m38.94-1.01v12.05c1.48-.01 2.95-.01 4.42-.01.01-4.01.01-8.02.01-12.04h-4.43m-4.35 2.15c-.01 3.29-.01 6.58 0 9.87l1.96.04c.02-3.32.02-6.63 0-9.95l-1.96.04M9.1 11.48c-.67.64-2.02 1.94-2.69 2.58.68.65 2.03 1.95 2.71 2.6.54-1.71.55-3.48-.02-5.18m10.19 10.29c2.33 2.18 5.81.59 6.93-2.06-2.78-.73-5.16-2.32-6.32-5.03-2.07 1.75-3.04 5.18-.61 7.09m4.65 9.52c.84.99 1.7 1.97 2.55 2.95.9-.94 1.79-1.88 2.65-2.84-1.71-.41-3.46-.34-5.2-.11z"/><path d="M39.12 14.33c1.4-1.22 3.57.84 2.16 2.2-1.3 1.38-3.77-.99-2.16-2.2zm-27.49 25.6c2.01-2.01 4.25-4.34 7.33-4.28 2.57-.2 4.84 1.09 6.81 2.57 4 2.97 10 2.39 13 6.83 3.42-.84 6.75-2.17 10.28-2.46 3.95.02 5.67 5.68 2.57 8.02-2.68 1.91-6.02 2.55-9.05 3.75-4.54 1.44-8.87 3.62-13.57 4.5-5.53.03-9.87-4.07-14.87-5.88-.35.42-1.04 1.26-1.39 1.68-.76-.01-2.29-.05-3.05-.06-.26.54-.78 1.64-1.03 2.19-2.83.04-5.66-.08-8.49-.19C.05 51.3.18 46.01 0 40.72v-.44c3.86-.45 7.75-.38 11.63-.35m4.35-.82c-4 2.41-1.82 7.69-2.33 11.49 4.91.83 8.65 4.52 13.42 5.76 2.42.54 4.72-.76 6.96-1.47 5.1-1.96 10.35-3.51 15.38-5.65 2.1-.72 1.82-4.28-.52-4.25-3.45.4-6.71 1.7-10.05 2.58-1.03 2.18-3.19 4.31-5.82 3.4-3.78-1.25-7.97-1.88-11.33-3.99.25-.4.77-1.21 1.03-1.61 3.84.88 7.47 2.53 11.33 3.38 2.15.21 3.17-2.99 1.22-4.01-3.78-2.1-8.54-2.14-11.8-5.17-2.01-1.79-5.3-2.16-7.49-.46M2.51 42.33v12.03h4.43c0-4.01 0-8.03-.01-12.05-1.47.01-2.95.01-4.42.02m6.83-.06c-.03 3.32-.03 6.64-.02 9.96h1.97c.01-3.29.01-6.58.01-9.87-.49-.02-1.47-.07-1.96-.09z"/><path d="M18.4 43.75c1.84-.66 2.75 2.54.81 2.93-1.94.7-2.56-2.38-.81-2.93z"/></svg>