<svg xmlns="http://www.w3.org/2000/svg">
	<symbol id="diamond" viewBox="0 0 60 60">
		<path d="M53.73 0h.48c1.07 2.72 2.94 4.82 5.79 5.71v.48c-2.63 1.06-4.53 2.96-5.7 5.52-1.83-.3-1.8-3.42-3.75-4-.81-.57-3.71-1.7-1.42-2.55 2.37-.87 3.66-2.93 4.6-5.16m-.46 5.07c-.57 1.7-.08 2.32 1.46 1.86.57-1.7.08-2.32-1.46-1.86zm-43 5.13c13.17-.03 26.33-.03 39.5 0 3.42 5.23 6.97 10.38 10.23 15.71v.25c-3.31 3.64-6.19 7.72-9.9 10.97-.53-.14-1.6-.43-2.14-.58 2.53-3.27 5.33-6.32 8.05-9.42-5.19-.01-10.37-.01-15.55 0-2.58 8.88-5.21 17.74-7.79 26.62 3.59-3.99 6.97-8.19 10.78-11.97 1.71 2.54-1.04 4.38-2.44 6.2-3.64 3.96-6.98 8.19-10.76 12.02h-.47c-4.66-4.94-9.2-10.03-13.43-15.33.36-.39 1.06-1.16 1.41-1.54 3.46 3.28 6.34 7.11 9.56 10.61-2.56-8.88-5.19-17.74-7.77-26.61-5.16-.02-10.31.03-15.47-.05 1.35 1.9 4.17 3.73 2.41 6.3-2.28-2.29-4.4-4.73-6.49-7.19v-.26c3.26-5.35 6.85-10.49 10.27-15.73m2.92 2.37c2.42 3.71 4.85 7.41 7.28 11.12 2.43-3.71 4.86-7.41 7.28-11.12H13.19m19.06 0c2.43 3.72 4.87 7.43 7.3 11.14 2.44-3.71 4.88-7.42 7.31-11.14H32.25M3.58 24.74c4.89.01 9.78.01 14.67.01-2.42-3.74-4.87-7.46-7.32-11.17L3.58 24.74m19.11.01h14.63c-2.43-3.73-4.87-7.45-7.32-11.17-2.44 3.72-4.88 7.44-7.31 11.17m19.1 0h14.64c-2.43-3.73-4.88-7.45-7.32-11.17-2.45 3.71-4.89 7.44-7.32 11.17m-19.73 2.38c2.65 9.02 5.27 18.05 7.94 27.07 2.68-9.02 5.29-18.05 7.95-27.07-5.3-.01-10.59-.01-15.89 0z"/>
		<path d="M11.2 31.8c2.15-.6 1.81 2.25 2.61 3.5.9 2.48 3.91 2.59 5.94 3.63.19 1.96-2.5 1.55-3.63 2.43-3.12.74-2.09 5.17-4.9 6.16-.58-1.62-.75-3.47-1.8-4.89-1.3-1.71-3.62-1.82-5.5-2.44.25-2.2 2.8-2.02 4.31-2.94 2.02-1.04 2.1-3.62 2.97-5.45m-1.59 7.67c.76.72 1.5 1.47 2.23 2.23.58-.56 1.72-1.67 2.3-2.23-.76-.77-1.52-1.53-2.28-2.3-.56.57-1.69 1.72-2.25 2.3zm35.47-.26c1.05-1.48 3.46.33 2.27 1.74-1.05 1.45-3.51-.35-2.27-1.74z"/>
	</symbol>
	<symbol id="payment" viewBox="0 0 59 59">
		<path d="M17.12 0h.38c1.67 1.33 3.23 2.79 4.73 4.31 3.4-1.14 6.91-3.07 10.6-2.14 4.05 1.06 7.36 3.87 11.31 5.21 1.65-.64 3.34-1.15 5.06-1.58 1.98-3.4 6.61-1.33 9.8-1.5v.27c-.19 5.38-.03 10.76-.2 16.13-3.81.16-7.62.14-11.43.14-2.17 2.5-5 4.4-8.43 4.43-3.94 3.6-7.47 7.62-11.41 11.21-1.03 1.33-2.26-.22-3.05-.93-7.06-7.2-14.36-14.17-21.3-21.5C7.7 9.24 12.45 4.65 17.12 0m.33 2.95c-.86.96-1.73 1.93-2.59 2.91 1.73.35 3.5.35 5.24 0-.87-.98-1.76-1.95-2.65-2.91m6.61 3.27c1.45 1.42 2.79 2.99 4.44 4.2 2.73 1.16 5.68 1.68 8.41 2.85l.2 1.91c-4.22-.02-7.98-2.47-12.1-3.14-1.97-.32-3.13 2.36-1.7 3.7 3.9 2.44 9.03 2.33 12.47 5.61 2.09 1.81 5.46 1.88 7.57.05 3.59-2.56 1.47-7.53 2-11.21-4.67-.85-8.3-4.18-12.75-5.61-2.95-1.01-5.8.75-8.54 1.64M13.12 7.39c-.76.75-1.52 1.51-2.28 2.27 1.45 2.79 1.48 6.01 0 8.8 3.77 3.79 7.54 7.57 11.33 11.33 2.75-1.5 5.95-1.5 8.7 0 .58-.56 1.73-1.68 2.31-2.23-.81-1.93-1.2-3.99-1.33-6.07-1.11-.37-2.22-.74-3.32-1.09-1.16 2.55-3.46 4.89-6.47 4.74-4.11.25-7.52-4.1-6.45-8.05.96-4.06 5.57-5.14 8.36-7.67l-2.16-2.01c-2.75 1.51-5.95 1.5-8.69-.02m38.94-1.01v12.05c1.48-.01 2.95-.01 4.42-.01.01-4.01.01-8.02.01-12.04h-4.43m-4.35 2.15c-.01 3.29-.01 6.58 0 9.87l1.96.04c.02-3.32.02-6.63 0-9.95l-1.96.04M9.1 11.48c-.67.64-2.02 1.94-2.69 2.58.68.65 2.03 1.95 2.71 2.6.54-1.71.55-3.48-.02-5.18m10.19 10.29c2.33 2.18 5.81.59 6.93-2.06-2.78-.73-5.16-2.32-6.32-5.03-2.07 1.75-3.04 5.18-.61 7.09m4.65 9.52c.84.99 1.7 1.97 2.55 2.95.9-.94 1.79-1.88 2.65-2.84-1.71-.41-3.46-.34-5.2-.11z"/>
		<path d="M39.12 14.33c1.4-1.22 3.57.84 2.16 2.2-1.3 1.38-3.77-.99-2.16-2.2zm-27.49 25.6c2.01-2.01 4.25-4.34 7.33-4.28 2.57-.2 4.84 1.09 6.81 2.57 4 2.97 10 2.39 13 6.83 3.42-.84 6.75-2.17 10.28-2.46 3.95.02 5.67 5.68 2.57 8.02-2.68 1.91-6.02 2.55-9.05 3.75-4.54 1.44-8.87 3.62-13.57 4.5-5.53.03-9.87-4.07-14.87-5.88-.35.42-1.04 1.26-1.39 1.68-.76-.01-2.29-.05-3.05-.06-.26.54-.78 1.64-1.03 2.19-2.83.04-5.66-.08-8.49-.19C.05 51.3.18 46.01 0 40.72v-.44c3.86-.45 7.75-.38 11.63-.35m4.35-.82c-4 2.41-1.82 7.69-2.33 11.49 4.91.83 8.65 4.52 13.42 5.76 2.42.54 4.72-.76 6.96-1.47 5.1-1.96 10.35-3.51 15.38-5.65 2.1-.72 1.82-4.28-.52-4.25-3.45.4-6.71 1.7-10.05 2.58-1.03 2.18-3.19 4.31-5.82 3.4-3.78-1.25-7.97-1.88-11.33-3.99.25-.4.77-1.21 1.03-1.61 3.84.88 7.47 2.53 11.33 3.38 2.15.21 3.17-2.99 1.22-4.01-3.78-2.1-8.54-2.14-11.8-5.17-2.01-1.79-5.3-2.16-7.49-.46M2.51 42.33v12.03h4.43c0-4.01 0-8.03-.01-12.05-1.47.01-2.95.01-4.42.02m6.83-.06c-.03 3.32-.03 6.64-.02 9.96h1.97c.01-3.29.01-6.58.01-9.87-.49-.02-1.47-.07-1.96-.09z"/>
		<path d="M18.4 43.75c1.84-.66 2.75 2.54.81 2.93-1.94.7-2.56-2.38-.81-2.93z"/>
	</symbol>
	<symbol id="manufacture" viewBox="0 0 56 57">
		<path d="M38.22 0h.65c1.97.82 4.41 2.34 3.82 4.86-.98 5.74-.67 11.58-.71 17.37 2.72 3.33 6.98 4.12 10.94 5.03 1.09 4.77 2.13 9.55 3.07 14.35-2.56 1.28-5.15 2.51-7.84 3.49.56-2.04 1.19-4.05 1.86-6.05-.79-2.19-1.61-4.38-2.41-6.56-3.46-1.3-6.78-3.93-10.65-3.39-2.71.73-5.32 1.92-7.71 3.38-1.51 1.86-1.94 4.38-2.87 6.56.7 2.02 1.37 4.06 1.97 6.12-2.71-1.01-5.55-1.94-7.76-3.86.64-5.06 1.92-10.01 2.88-15.02 3.97-.44 8.34-.59 10.99-4.05-.07-4.46-.06-8.91-.06-13.36-7.69 1.7-15.38 3.39-23.06 5.15 0 9.91.01 19.82-.01 29.72 1.25.05 2.49.11 3.73.16.02 4.01.02 8.01-.01 12.01-4.94.13-9.88.11-14.82.07-.2-4.02-.19-8.05-.11-12.08.95-.04 2.83-.11 3.77-.15-.07-9.87.1-19.74-.09-29.61-.65-1.35-1.4-2.68-1.78-4.14-.43-2.9 1.91-5.85 4.85-6.02 8.28-.95 16.63-.97 24.92-1.82C34.07 1.95 36.09.75 38.22 0m-.94 2.27c-1.34.48-2.44 2.39-1.48 3.65.65 1.95 3.54 2.18 4.59.46 1.78-1.89-.87-5.26-3.11-4.11M12.12 5.46c.67 1.97 1.04 4.01 1.18 6.09 6.85-1.63 13.75-3.07 20.61-4.65-.12-.71-.37-2.14-.49-2.85-7.1.55-14.2 1.02-21.3 1.41M5.44 6.54c-1.77 1.2-2.03 4.04-.42 5.47 1.89 2.2 6 .82 6.17-2.1.57-3.05-3.41-5.32-5.75-3.37m30.92 2.88c.06 4.01.03 8.03.05 12.04.9 0 2.69 0 3.59.01V9.37c-1.21.02-2.43.04-3.64.05M5.8 15.02c.01 9.59-.01 19.18.01 28.78.9 0 2.68.01 3.58.01.02-9.6 0-19.2.01-28.8-.9.01-2.7.01-3.6.01m26.26 11.94c-2.26.63-4.62.75-6.93 1.1-.84 4.12-1.68 8.24-2.46 12.38l2.08 1.28c-.93-3.77 1.34-7.19 2.43-10.65 3.2-1.41 6.29-3.19 9.69-4.06 4.37-.42 8.25 2.17 12.01 4.03 1.86 3.28 3.53 7.16 2.85 11.04.46-.47 1.39-1.4 1.85-1.87-.64-3.79-1.27-7.63-2.52-11.28-3.89-1.01-8.02-1.82-10.44-5.4a717.9 717.9 0 0 0-4.64-.07c-1.29 1.18-2.43 2.56-3.92 3.5M2.93 45.74c1.55 2.45 3.11 4.91 4.66 7.36 1.55-2.45 3.11-4.89 4.65-7.35-3.1-.02-6.21-.02-9.31-.01m-.87 2.43V54h3.73c-1.24-1.95-2.48-3.89-3.73-5.83m7.34 5.82c1.22 0 2.44.01 3.66.01 0-1.9 0-3.8-.01-5.7-1.22 1.89-2.44 3.79-3.65 5.69z"/>
		<path d="M5.82 9.07C5.55 7.13 8.2 8.06 9.27 7.55c.01 1.29-.01 2.57-.04 3.86-1.46-.29-4.14.04-3.41-2.34zm27.36 24.85c.95-.89 1.93-1.74 2.94-2.56.65.44 1.3.87 1.95 1.31 1.94-1.51 4.03-.48 5.24 1.33 2.11.47 3.28 2.24 3.03 4.36 1.43 1.64 1.57 4.09-.33 5.47.14.57.43 1.71.58 2.27-1.09.7-2.19 1.38-3.31 2.03-1.18 1.73-2.95 2.49-4.95 1.63-1.39.11-2.78.19-4.17.25-.14-.49-.43-1.48-.57-1.98-1.43-.4-2.69-1.15-3.84-2.08.18-.55.53-1.66.7-2.21-2.2-1.24-1.95-4.2.05-5.41-.25-.77-.51-1.54-.76-2.31 1.14-.71 2.28-1.42 3.44-2.1m-.94 2.99l.68 2.09c-.5.51-1.48 1.54-1.97 2.05.48.48 1.45 1.45 1.94 1.93-.16.55-.47 1.66-.62 2.21 1.7.38 3.12 1.23 3.96 2.8.42-.28 1.27-.83 1.7-1.11.8.32 1.6.65 2.39.97.79-1.26 1.86-2.26 3.34-2.62.09-1.49.58-2.88 1.3-4.17-.67-1.32-1.18-2.71-1.32-4.2-1.4-.37-2.46-1.28-3.19-2.52-1.46.49-2.97.66-4.41-.02-.77 1.5-2.28 2.12-3.8 2.59z"/>
		<path d="M37.42 36.39c3.41-.74 6.64 3.14 5.17 6.35-1.07 3.16-5.64 4.05-7.82 1.53-2.57-2.52-.95-7.46 2.65-7.88m.12 1.97c-2.17.6-2.89 3.78-.78 4.93 1.62 1.36 4.35-.3 4.17-2.3.07-1.68-1.8-3-3.39-2.63zM50.21 57c-1.25-2.76 3.36-2.63 1.8 0h-1.8zm3.95 0c-.5-1.72.12-2.34 1.84-1.84V57h-1.84z"/>
	</symbol>
	<symbol id="truck" viewBox="0 0 61 44">
		<path d="M0 0h2.26c.01.56.02 1.69.02 2.25-.57.01-1.71.03-2.28.05V0zm4.16.02C8.9 0 13.63.01 18.37.01l.09 2.26c-4.81.03-9.63.04-14.44-.01L4.16.02zM.28 4.07c13.39.19 26.84-.45 40.2.3.32 2.26.28 4.55.35 6.83 3.33.03 6.69-.24 10 .19 1.29.6 1.85 2.09 2.69 3.16 2.34 3.95 5.15 7.62 7.21 11.72.53 3.91.12 7.88.27 11.82v.52c-1.94.15-3.89.27-5.84.4-1.45 2.23-3.13 4.9-6.14 4.97-3.26.31-5.32-2.48-6.73-4.98-7.18-.15-14.35-.2-21.53-.05-1.35 2.18-2.87 4.79-5.75 4.99-3.41.56-5.65-2.41-7.16-4.98-2.62-.08-5.23-.15-7.85-.26v-.57C.16 26.78-.3 15.41.28 4.07m2.02 2.3c-.02 8.72-.02 17.45 0 26.17 1.69.02 3.39.03 5.08.05l-.07 2.19c-1.65.02-3.3.03-4.96.04-.03.45-.1 1.33-.14 1.77 1.89.03 3.78.05 5.67.06 1.25-2.45 3.03-5.14 6.14-5.07 3.28-.39 5.51 2.34 6.67 5.03 5.12.02 10.24.07 15.35.03 1.37.21 2.23-.37 2.6-1.76-5.63-.23-11.27.1-16.9-.15-.2-.52-.6-1.56-.79-2.08 5.75-.18 11.51-.02 17.27-.12.04-7.36-.2-14.73.17-22.09-11.57-.07-23.15.12-34.73-.11.2-.52.59-1.56.78-2.08 9.85-.3 19.72-.06 29.58-.09 1.8-.13 4.02.35 5.24-1.42-12.29-.85-24.65-.15-36.96-.37m38.71 7.07c.13 7.96-.34 15.95.28 23.89 2.02-2.11 3.32-5.58 6.69-5.72 3.49-.61 5.87 2.28 7.23 5.06l3.57-.09-.12-1.73c-.73-.03-2.19-.07-2.92-.09l-.03-2.16 3.04-.08c-.22-1.85.45-4.07-.48-5.69-5.01-.39-10.04.21-15.04-.24-1.51-3.36-.4-7.6-.46-11.3 2.92-.02 5.84.01 8.76-.14-2.59-3.11-7.05-1.25-10.52-1.71m3.83 4.07c-.03 2.29-.05 4.57-.05 6.86 4.1.07 8.2.05 12.31.06-1.48-2.31-2.95-4.61-4.41-6.92h-7.85M12.42 34.22c-2.65 1.47-2.68 5.73.14 7 2.63 1.65 6.42-1.2 5.57-4.21-.26-2.66-3.47-3.88-5.71-2.79m33.98.32c-2.28 1.51-2.09 5.48.46 6.63 2.81 1.91 6.77-1.5 5.58-4.58-.66-2.55-4-3.6-6.04-2.05z"/>
		<path d="M13.35 36.55c.51.04 1.53.11 2.03.15.03.51.1 1.52.13 2.03-.58.03-1.74.1-2.32.13l.16-2.31zm34.27.14c.53-.04 1.59-.1 2.12-.13.03.57.1 1.72.13 2.3-.59-.03-1.78-.1-2.38-.13.03-.51.1-1.53.13-2.04z"/>
	</symbol>
</svg>