<svg xmlns="http://www.w3.org/2000/svg" viewBox="0 0 61 44" width="61" height="44"><path d="M0 0h2.26c.01.56.02 1.69.02 2.25-.57.01-1.71.03-2.28.05V0zm4.16.02C8.9 0 13.63.01 18.37.01l.09 2.26c-4.81.03-9.63.04-14.44-.01L4.16.02zM.28 4.07c13.39.19 26.84-.45 40.2.3.32 2.26.28 4.55.35 6.83 3.33.03 6.69-.24 10 .19 1.29.6 1.85 2.09 2.69 3.16 2.34 3.95 5.15 7.62 7.21 11.72.53 3.91.12 7.88.27 11.82v.52c-1.94.15-3.89.27-5.84.4-1.45 2.23-3.13 4.9-6.14 4.97-3.26.31-5.32-2.48-6.73-4.98-7.18-.15-14.35-.2-21.53-.05-1.35 2.18-2.87 4.79-5.75 4.99-3.41.56-5.65-2.41-7.16-4.98-2.62-.08-5.23-.15-7.85-.26v-.57C.16 26.78-.3 15.41.28 4.07m2.02 2.3c-.02 8.72-.02 17.45 0 26.17 1.69.02 3.39.03 5.08.05l-.07 2.19c-1.65.02-3.3.03-4.96.04-.03.45-.1 1.33-.14 1.77 1.89.03 3.78.05 5.67.06 1.25-2.45 3.03-5.14 6.14-5.07 3.28-.39 5.51 2.34 6.67 5.03 5.12.02 10.24.07 15.35.03 1.37.21 2.23-.37 2.6-1.76-5.63-.23-11.27.1-16.9-.15-.2-.52-.6-1.56-.79-2.08 5.75-.18 11.51-.02 17.27-.12.04-7.36-.2-14.73.17-22.09-11.57-.07-23.15.12-34.73-.11.2-.52.59-1.56.78-2.08 9.85-.3 19.72-.06 29.58-.09 1.8-.13 4.02.35 5.24-1.42-12.29-.85-24.65-.15-36.96-.37m38.71 7.07c.13 7.96-.34 15.95.28 23.89 2.02-2.11 3.32-5.58 6.69-5.72 3.49-.61 5.87 2.28 7.23 5.06l3.57-.09-.12-1.73c-.73-.03-2.19-.07-2.92-.09l-.03-2.16 3.04-.08c-.22-1.85.45-4.07-.48-5.69-5.01-.39-10.04.21-15.04-.24-1.51-3.36-.4-7.6-.46-11.3 2.92-.02 5.84.01 8.76-.14-2.59-3.11-7.05-1.25-10.52-1.71m3.83 4.07c-.03 2.29-.05 4.57-.05 6.86 4.1.07 8.2.05 12.31.06-1.48-2.31-2.95-4.61-4.41-6.92h-7.85M12.42 34.22c-2.65 1.47-2.68 5.73.14 7 2.63 1.65 6.42-1.2 5.57-4.21-.26-2.66-3.47-3.88-5.71-2.79m33.98.32c-2.28 1.51-2.09 5.48.46 6.63 2.81 1.91 6.77-1.5 5.58-4.58-.66-2.55-4-3.6-6.04-2.05z"/><path d="M13.35 36.55c.51.04 1.53.11 2.03.15.03.51.1 1.52.13 2.03-.58.03-1.74.1-2.32.13l.16-2.31zm34.27.14c.53-.04 1.59-.1 2.12-.13.03.57.1 1.72.13 2.3-.59-.03-1.78-.1-2.38-.13.03-.51.1-1.53.13-2.04z"/></svg>